<?xml version="1.0" encoding="utf-8"?>
<!-- Generator: Adobe Illustrator 27.2.0, SVG Export Plug-In . SVG Version: 6.00 Build 0)  -->
<svg version="1.1" id="Capa_1" xmlns="http://www.w3.org/2000/svg" xmlns:xlink="http://www.w3.org/1999/xlink" x="0px" y="0px"
	 viewBox="0 0 503.1 448.6" style="enable-background:new 0 0 503.1 448.6;" xml:space="preserve">
<style type="text/css">
	.st0{fill:none;}
	.st1{fill:none;stroke:#64C0B6;stroke-miterlimit:10;}
	.st2{fill:#FFFFFF;}
</style>
<g>
	<g>
		<polygon class="st2" points="479.5,448.6 394,448.6 374,402 372.7,398.7 351.3,348.9 329.9,299.1 329.9,299.1 308.6,249.2 
			287.2,199.4 265.8,149.5 265.8,149.5 244.5,99.7 244.5,99.7 244.5,99.7 223.1,49.8 201.8,0 287.2,0 308.6,49.8 329.9,99.7 
			329.9,99.7 329.9,99.7 351.3,149.5 351.3,149.5 372.7,199.4 394,249.2 415.4,299.1 436.7,348.9 458.1,398.7 479.5,448.6 		"/>
		<path class="st2" d="M503.1,272.2c-48.8,30.6-91.4,47.1-132.4,58.6c-41,11.4-77.2,15.8-106.6,18l0-67
			c81.4-6.6,140.5-27.2,212.5-71.6"/>
	</g>
	<g>
		<path class="st2" d="M0,271.4c48.8,30.6,91.5,47.9,132.5,59.3c41,11.4,77.2,15.8,106.6,18l0-67c-81.4-6.6-140.5-27.2-212.5-71.6
			c-0.1,0-7.8,16.3-14.4,32.4C6,257.6,0,271.4,0,271.4z"/>
		<path class="st2" d="M206.3,99.3L206.3,99.3L206.3,99.3l-20.4-49.8l-20.4,49.8v0l-20.4,49.8v0L124.7,199l-20.4,49.8L84,298.7h0
			l-20.4,49.8v0l-20.4,49.8l-20.4,49.8l0,0h81.6l0,0l20.4-49.8l20.4-49.8l20.4-49.8l20.4-49.8l20.4-49.8l20.4-49.8v0L206.3,99.3z
			 M63.6,448.2L63.6,448.2L63.6,448.2L63.6,448.2z"/>
	</g>
</g>
</svg>
