<?xml version="1.0" encoding="utf-8"?>
<!-- Generator: Adobe Illustrator 27.2.0, SVG Export Plug-In . SVG Version: 6.00 Build 0)  -->
<svg version="1.1" id="Capa_1" xmlns="http://www.w3.org/2000/svg" xmlns:xlink="http://www.w3.org/1999/xlink" x="0px" y="0px"
	 viewBox="0 0 509.2 451.7" style="enable-background:new 0 0 509.2 451.7;" xml:space="preserve">
<style type="text/css">
	.st0{fill:none;}
	.st1{fill:none;stroke:#64C0B6;stroke-miterlimit:10;}
	.st2{fill:#213362;}
</style>
<g>
	<path class="st2" d="M509.2,275.7l-32.1-74.9l-7.7,4.7c-25.2,15.5-48.5,27.8-70.8,37.3l-39.1-91.2v0l-19.4-45.3l-22.8-53.2L294.5,0
		H194.4L240,106.4l2.7,6.2l18.1,42.3v0l48.8,113.9c-13.8,2.3-28.1,4.1-43.5,5.3l-7.2,0.6l0,80.8l8.4-0.6c27.3-2,51.2-5.3,74.7-10.3
		l23.3,54.3l1.3,3.2l21.5,50.1h100.1l-57.8-134.8c24.8-10.3,48.8-22.8,73.1-38.1L509.2,275.7z M420.2,313.1l14.7,34.3l20.8,48.5
		l20.8,48.5h-83.1L373.8,399l-1.4-3.2l-20.8-48.5l-5-11.7c-30.2,6.8-57.1,9.8-79.9,11.5l0-65.2c19.1-1.5,36.9-3.9,53.9-7.1
		l-10.5-24.4l-20.8-48.5l-20.8-48.5v0l-20.8-48.5h0v0L227,56.3L206.2,7.8h83.1l20.8,48.5l20.8,48.5v0l20.8,48.5v0l20.8,48.5
		l20.8,48.5l1.2,2.7c25.8-10.4,51.4-23.8,79.1-40.8l25.9,60.5C471.2,290.4,445.1,303.2,420.2,313.1z"/>
	<polygon class="st2" points="71.7,444 71.7,444 71.7,444 	"/>
	<path class="st2" d="M243.2,274.1c-18.3-1.5-35.1-3.7-51.2-6.7l45.6-111.6l0.6-1.4v-3.1l-20.4-49.9l-1-2.5l-26-63.6l-27.1,66.1
		l-0.6,1.4L143.9,150l-37.3,91.1c-21-9.2-42.9-20.9-66.7-35.6l-1.9-1.2l-5.6-3.6c-2.4,5.2-3.3,7.1-5,10.8c-0.8,1.8-2,4.3-3.4,7.3
		c-2.4,5.4-6.1,13.5-9.5,21.9c-5.9,14.5-11.8,27.9-11.9,28.1L0,275l5.7,3.6c23.7,14.9,46.8,27.1,70.3,37.3L64.5,344l-0.6,1.5
		L20.4,451.7h96.2L161,343.2c33.4,7.5,62,10.2,80.9,11.6l8.4,0.6l0-80.8L243.2,274.1z M242.5,347.1c-24.4-1.8-53.5-5.2-86.2-13
		l-5.2,12.8l-19.8,48.5L111.4,444H32l19.8-48.5L71.7,347v0l14.5-35.3c-24-9.9-49.2-22.7-76.3-39.7c0,0,5.9-13.5,11.9-28.2
		c6.4-15.6,13.9-31.5,14-31.5c26.2,16.1,50.6,29,75,39.2l0.6-1.5l19.8-48.5l19.8-48.5v0l19.8-48.5v0l19.8-48.5l19.8,48.5v0h0
		l19.8,48.5v0l-19.8,48.5l-19.8,48.5l-9.5,23.3c19.3,4,39.5,6.9,61.3,8.6L242.5,347.1z"/>
</g>
</svg>
