<?xml version="1.0" encoding="UTF-8"?>
<svg id="Capa_1" data-name="Capa 1" xmlns="http://www.w3.org/2000/svg" viewBox="0 0 503.06 448.58">
  <defs>
    <style>
      .cls-1 {
        fill: #213362;
      }

      .cls-2 {
        fill: #64c0b6;
      }
    </style>
  </defs>
  <g>
    <polygon class="cls-2" points="479.45 448.58 394.01 448.58 374.04 401.98 372.65 398.74 351.29 348.9 329.93 299.06 329.92 299.06 308.56 249.21 287.2 199.37 265.84 149.53 265.84 149.52 244.49 99.69 244.48 99.69 244.48 99.68 223.12 49.84 201.76 0 287.2 0 308.56 49.84 329.93 99.68 329.92 99.69 329.93 99.69 351.29 149.52 351.29 149.53 372.65 199.37 394.01 249.21 415.37 299.06 436.73 348.9 458.09 398.74 479.45 448.58 479.45 448.58"/>
    <path class="cls-1" d="m503.06,272.16c-48.83,30.63-91.44,47.13-132.44,58.56-41.01,11.43-77.17,15.75-106.62,17.95l-.04-67.03c81.41-6.56,140.45-27.24,212.47-71.61"/>
  </g>
  <g>
    <path class="cls-1" d="m206.3,99.3h0s-20.39-49.85-20.39-49.85l-20.39,49.84h0s-20.39,49.84-20.39,49.84h0s-20.39,49.85-20.39,49.85l-20.39,49.84-20.39,49.85h0l-20.38,49.82v.03l-20.39,49.83-20.4,49.84h81.57l20.39-49.84,20.39-49.84,20.39-49.84,20.39-49.85,20.39-49.84,20.39-49.84h0s-20.38-49.84-20.38-49.84ZM63.57,448.2h0s0-.02,0-.02v.02Z"/>
    <path class="cls-2" d="m0,271.43c48.83,30.63,91.48,47.86,132.48,59.29,41.01,11.43,77.17,15.75,106.62,17.95l.04-67.03c-81.41-6.56-140.45-27.24-212.47-71.61-.09,0-7.84,16.33-14.42,32.38-6.21,15.15-12.26,29.02-12.26,29.02Z"/>
  </g>
</svg>